<svg xmlns="http://www.w3.org/2000/svg" version="1.1" xmlns:xlink="http://www.w3.org/1999/xlink" xmlns:svgjs="http://svgjs.dev/svgjs" width="1500" height="935" viewBox="0 0 1500 935"><g transform="matrix(1,0,0,1,-0.9090909090908781,0.3785425101214628)"><svg viewBox="0 0 396 247" data-background-color="#ffffff" preserveAspectRatio="xMidYMid meet" height="935" width="1500" xmlns="http://www.w3.org/2000/svg" xmlns:xlink="http://www.w3.org/1999/xlink"><g id="tight-bounds" transform="matrix(1,0,0,1,0.2400000000000091,-0.09999999999999432)"><svg viewBox="0 0 395.52 247.2" height="247.2" width="395.52"><g><svg></svg></g><g><svg viewBox="0 0 395.52 247.2" height="247.2" width="395.52"><g transform="matrix(1,0,0,1,75.54432,71.37990257091127)"><svg viewBox="0 0 244.43135999999998 104.44019485817745" height="104.44019485817745" width="244.43135999999998"><g><svg viewBox="0 0 244.43135999999998 104.44019485817745" height="104.44019485817745" width="244.43135999999998"><g><svg viewBox="0 0 244.43135999999998 104.44019485817745" height="104.44019485817745" width="244.43135999999998"><g><svg viewBox="0 0 244.43135999999998 104.44019485817745" height="104.44019485817745" width="244.43135999999998"><g id="textblocktransform"><svg viewBox="0 0 244.43135999999998 104.44019485817745" height="104.44019485817745" width="244.43135999999998" id="textblock"><g><svg viewBox="0 0 244.43135999999998 104.44019485817745" height="104.44019485817745" width="244.43135999999998"><g transform="matrix(1,0,0,1,0,0)"><svg width="244.43135999999998" viewBox="4 -35.2 82.84 35.400000000000006" height="104.44019485817745" data-palette-color="#438eef"><path d="M22.2-35L21.95-32 7.4-32 7.4-18.85 20.9-18.85 20.65-15.85 7.4-15.85 7.4-3 23.2-3 22.95 0 4 0 4-35 22.2-35ZM42.2-35.2L42.2-35.2Q56.95-35.2 56.95-17.4L56.95-17.4Q56.95-9.25 52.75-4.53 48.55 0.2 42.2 0.2L42.2 0.2Q35.45 0.2 31.75-3.5L31.75-3.5Q27.45-7.9 27.45-16.75 27.45-25.6 31.67-30.4 35.9-35.2 42.2-35.2ZM34.2-5.9L34.2-5.9Q36.95-2.8 42.2-2.8L42.2-2.8Q47.15-2.8 50.35-6.73 53.55-10.65 53.55-18 53.55-25.35 50.2-29.05L50.2-29.05Q47.4-32.2 42.2-32.2L42.2-32.2Q37.3-32.2 34.07-28.25 30.85-24.3 30.85-16.93 30.85-9.55 34.2-5.9ZM86.7-32.35L85.4-30.1Q84.09-31.4 80.7-32.05L80.7-32.05Q79.45-32.3 77.45-32.3 75.45-32.3 73.22-31.35 71-30.4 69.3-28.4L69.3-28.4Q65.65-24 65.65-16 65.65-8 69.3-4.8L69.3-4.8Q71.8-2.55 75.92-2.55 80.05-2.55 83.84-3.6L83.84-3.6 84.09-15.5 86.84-15.5 86.84-2Q84.65-0.6 78.9 0L78.9 0Q77.3 0.2 75.52 0.2 73.75 0.2 71.34-0.38 68.95-0.95 66.9-2.7L66.9-2.7Q62.25-6.65 62.25-15.85 62.25-25.05 66.65-30.08 71.05-35.1 78-35.1L78-35.1 79.59-35Q82.75-34.7 84.42-33.85 86.09-33 86.7-32.35L86.7-32.35Z" opacity="1" transform="matrix(1,0,0,1,0,0)" fill="#438eef" class="wordmark-text-0" data-fill-palette-color="primary" id="text-0"></path></svg></g></svg></g></svg></g></svg></g></svg></g></svg></g></svg></g><g><path d="M0 123.6c0-68.262 55.338-123.6 123.6-123.6 44.606 0 83.693 23.629 105.427 59.052l-5.567 0c-21.183-32.704-57.994-54.343-99.86-54.343-65.662 0-118.891 53.229-118.891 118.891 0 65.662 53.229 118.891 118.891 118.891 41.865 0 78.677-21.639 99.86-54.343l5.567 0c-21.734 35.423-60.821 59.052-105.427 59.052-68.262 0-123.6-55.338-123.6-123.6z" fill="#438eef" stroke="transparent" data-fill-palette-color="tertiary"></path></g></svg></g><defs></defs></svg><rect width="395.52" height="247.2" fill="none" stroke="none" visibility="hidden"></rect></g></svg></g></svg>